<svg xmlns="http://www.w3.org/2000/svg" xmlns:xlink="http://www.w3.org/1999/xlink" viewBox="0 0 1315.3 1389.55"><defs><style>.cls-1{fill:none;}.cls-2{clip-path:url(#clip-path);}.cls-3{fill:#276b00;}.cls-4{fill:url(#linear-gradient);}.cls-5{fill:url(#linear-gradient-2);}.cls-6{fill:url(#linear-gradient-3);}.cls-7{fill:url(#linear-gradient-4);}.cls-8{fill:url(#linear-gradient-5);}.cls-9{fill:url(#linear-gradient-6);}.cls-10{fill:url(#linear-gradient-7);}.cls-11{fill:url(#linear-gradient-8);}.cls-12{fill:url(#linear-gradient-9);}.cls-13{fill:url(#linear-gradient-10);}.cls-14{fill:url(#linear-gradient-11);}.cls-15{fill:url(#linear-gradient-12);}.cls-16{fill:url(#linear-gradient-13);}.cls-17{fill:url(#linear-gradient-14);}.cls-18{fill:url(#linear-gradient-15);}.cls-19{fill:url(#linear-gradient-16);}.cls-20{fill:url(#linear-gradient-17);}.cls-21{fill:url(#linear-gradient-18);}.cls-22{fill:url(#linear-gradient-19);}.cls-23{fill:url(#linear-gradient-20);}.cls-24{fill:url(#linear-gradient-21);}.cls-25{fill:url(#linear-gradient-22);}.cls-26{fill:url(#linear-gradient-23);}.cls-27{fill:url(#linear-gradient-24);}.cls-28{fill:url(#linear-gradient-25);}.cls-29{fill:url(#linear-gradient-26);}.cls-30{fill:url(#linear-gradient-27);}.cls-31{fill:url(#linear-gradient-28);}.cls-32{fill:url(#linear-gradient-29);}.cls-33{fill:url(#linear-gradient-30);}.cls-34{fill:url(#linear-gradient-31);}.cls-35{fill:url(#linear-gradient-32);}.cls-36{fill:url(#linear-gradient-33);}.cls-37{fill:url(#linear-gradient-34);}.cls-38{fill:url(#linear-gradient-35);}.cls-39{fill:url(#linear-gradient-36);}.cls-40{fill:url(#linear-gradient-37);}.cls-41{fill:url(#linear-gradient-38);}.cls-42{fill:url(#linear-gradient-39);}.cls-43{fill:url(#linear-gradient-40);}.cls-44{fill:url(#linear-gradient-41);}.cls-45{fill:url(#linear-gradient-42);}.cls-46{fill:url(#linear-gradient-43);}.cls-47{fill:url(#linear-gradient-44);}.cls-48{fill:url(#linear-gradient-45);}.cls-49{fill:url(#linear-gradient-46);}.cls-50{fill:url(#linear-gradient-47);}.cls-51{fill:url(#linear-gradient-48);}.cls-52{fill:url(#linear-gradient-49);}.cls-53{fill:url(#linear-gradient-50);}.cls-54{fill:url(#linear-gradient-51);}.cls-55{fill:url(#linear-gradient-52);}.cls-56{fill:url(#linear-gradient-53);}.cls-57{fill:url(#linear-gradient-54);}.cls-58{fill:url(#linear-gradient-55);}.cls-59{fill:url(#linear-gradient-56);}.cls-60{fill:url(#linear-gradient-57);}.cls-61{fill:url(#linear-gradient-58);}.cls-62{fill:url(#linear-gradient-59);}.cls-63{fill:url(#linear-gradient-60);}.cls-64{fill:url(#linear-gradient-61);}.cls-65{fill:url(#linear-gradient-62);}.cls-66{fill:url(#linear-gradient-63);}.cls-67{fill:url(#linear-gradient-64);}.cls-68{fill:url(#linear-gradient-65);}.cls-69{fill:url(#linear-gradient-66);}.cls-70{fill:url(#linear-gradient-67);}.cls-71{fill:url(#linear-gradient-68);}.cls-72{fill:url(#linear-gradient-69);}.cls-73{fill:url(#linear-gradient-70);}.cls-74{fill:url(#linear-gradient-71);}.cls-75{fill:url(#linear-gradient-72);}.cls-76{fill:url(#linear-gradient-73);}.cls-77{fill:url(#linear-gradient-74);}.cls-78{fill:url(#linear-gradient-75);}.cls-79{fill:url(#linear-gradient-76);}.cls-80{fill:url(#linear-gradient-77);}.cls-81{fill:url(#linear-gradient-78);}.cls-82{fill:url(#linear-gradient-79);}.cls-83{fill:url(#linear-gradient-80);}.cls-84{fill:url(#linear-gradient-81);}.cls-85{fill:url(#linear-gradient-82);}.cls-86{fill:url(#linear-gradient-83);}.cls-87{fill:url(#linear-gradient-84);}.cls-88{fill:url(#linear-gradient-85);}.cls-89{fill:url(#linear-gradient-86);}.cls-90{fill:url(#linear-gradient-87);}.cls-91{fill:url(#linear-gradient-88);}.cls-92{fill:url(#linear-gradient-89);}.cls-93{fill:url(#linear-gradient-90);}.cls-94{fill:url(#linear-gradient-91);}.cls-95{fill:url(#linear-gradient-92);}.cls-96{fill:url(#linear-gradient-93);}.cls-97{fill:url(#linear-gradient-94);}.cls-98{fill:url(#linear-gradient-95);}.cls-99{fill:url(#linear-gradient-96);}.cls-100{fill:url(#linear-gradient-97);}.cls-101{fill:#e8e8e8;}</style><clipPath id="clip-path"><rect id="SVGID" class="cls-1" x="220.57" y="103.73" width="1897.65" height="1080.08"/></clipPath><linearGradient id="linear-gradient" x1="817.76" y1="1454.09" x2="515.7" y2="1019.35" gradientTransform="matrix(-0.86, -0.5, -0.5, 0.86, 2170.96, 345.28)" gradientUnits="userSpaceOnUse"><stop offset="0" stop-color="#276b00"/><stop offset="1" stop-color="#40ff00"/></linearGradient><linearGradient id="linear-gradient-2" x1="1393.99" y1="1300.29" x2="1372.84" y2="362.59" gradientTransform="translate(1462.47 -485.95) rotate(68.86)" xlink:href="#linear-gradient"/><linearGradient id="linear-gradient-3" x1="1531.44" y1="312.46" x2="1236" y2="17.1" gradientTransform="matrix(-0.97, 0.23, 0.23, 0.97, 2192.48, -118.52)" gradientUnits="userSpaceOnUse"><stop offset="0" stop-color="#276b00"/><stop offset="1" stop-color="#05ff12"/></linearGradient><linearGradient id="linear-gradient-4" x1="605.02" y1="1764.54" x2="365.44" y2="1465.38" gradientTransform="translate(1973.95 -443.77) rotate(82.37)" gradientUnits="userSpaceOnUse"><stop offset="0" stop-color="#34de00"/><stop offset="1" stop-color="#95a75c"/></linearGradient><linearGradient id="linear-gradient-5" x1="1267.09" y1="1620.77" x2="944.77" y2="1362.39" gradientTransform="matrix(-0.42, 0.91, -0.91, -0.42, 2312.46, -119.14)" xlink:href="#linear-gradient-4"/><linearGradient id="linear-gradient-6" x1="1981.8" y1="-204.59" x2="1963.81" y2="-311.09" gradientTransform="matrix(-0.97, 0.25, 0.25, 0.97, 2324.66, -145.77)" gradientUnits="userSpaceOnUse"><stop offset="0" stop-color="#276b00"/><stop offset="1" stop-color="#c5ff26"/></linearGradient><linearGradient id="linear-gradient-7" x1="1957.85" y1="-222.13" x2="1874.84" y2="-251.98" xlink:href="#linear-gradient-6"/><linearGradient id="linear-gradient-8" x1="2034.96" y1="-167.28" x2="1917.65" y2="-170.57" xlink:href="#linear-gradient-6"/><linearGradient id="linear-gradient-9" x1="2084.42" y1="-118.42" x2="1931.78" y2="-88.77" xlink:href="#linear-gradient-6"/><linearGradient id="linear-gradient-10" x1="2164.77" y1="-78.19" x2="2012.49" y2="-33.54" xlink:href="#linear-gradient-6"/><linearGradient id="linear-gradient-11" x1="2251.23" y1="-50.47" x2="2111.87" y2="25.25" xlink:href="#linear-gradient-6"/><linearGradient id="linear-gradient-12" x1="2042.32" y1="-158.93" x2="2025.77" y2="-281.26" xlink:href="#linear-gradient-6"/><linearGradient id="linear-gradient-13" x1="2158.56" y1="-86.78" x2="2096.66" y2="-230.01" xlink:href="#linear-gradient-6"/><linearGradient id="linear-gradient-14" x1="2237.93" y1="-54.21" x2="2182.53" y2="-264.3" xlink:href="#linear-gradient-6"/><linearGradient id="linear-gradient-15" x1="1948.61" y1="-230.62" x2="1893.88" y2="-324.96" xlink:href="#linear-gradient-6"/><linearGradient id="linear-gradient-16" x1="2254.63" y1="-44.22" x2="2052" y2="65.87" xlink:href="#linear-gradient-6"/><linearGradient id="linear-gradient-17" x1="2165.77" y1="-93.58" x2="1962.48" y2="16.86" xlink:href="#linear-gradient-6"/><linearGradient id="linear-gradient-18" x1="2086.45" y1="-144.23" x2="1882.98" y2="-33.68" xlink:href="#linear-gradient-6"/><linearGradient id="linear-gradient-19" x1="2023.37" y1="-160.84" x2="1854.53" y2="-164.49" xlink:href="#linear-gradient-6"/><linearGradient id="linear-gradient-20" x1="1956.58" y1="-218.08" x2="1843" y2="-259.58" xlink:href="#linear-gradient-6"/><linearGradient id="linear-gradient-21" x1="1937.4" y1="-238.67" x2="1859.62" y2="-374.07" xlink:href="#linear-gradient-6"/><linearGradient id="linear-gradient-22" x1="1979.48" y1="-211.78" x2="1965.73" y2="-343.92" xlink:href="#linear-gradient-6"/><linearGradient id="linear-gradient-23" x1="2031.17" y1="-150.66" x2="2036.2" y2="-324.11" xlink:href="#linear-gradient-6"/><linearGradient id="linear-gradient-24" x1="2151.67" y1="-81.89" x2="2096.99" y2="-294.86" xlink:href="#linear-gradient-6"/><linearGradient id="linear-gradient-25" x1="2244.78" y1="-50.39" x2="2198.02" y2="-278.46" xlink:href="#linear-gradient-6"/><linearGradient id="linear-gradient-26" x1="1118.21" y1="529.07" x2="851.76" y2="145.57" gradientTransform="matrix(-0.9, 0.43, 0.43, 0.9, 1362.05, -330.4)" xlink:href="#linear-gradient"/><linearGradient id="linear-gradient-27" x1="574.13" y1="762.77" x2="555.47" y2="-64.3" gradientTransform="translate(276.68 -210.82) rotate(13.01)" xlink:href="#linear-gradient"/><linearGradient id="linear-gradient-28" x1="1923.95" y1="813.81" x2="1558.18" y2="388.8" gradientTransform="matrix(-0.97, 0.23, 0.23, 0.97, 2130.01, -294.65)" xlink:href="#linear-gradient-4"/><linearGradient id="linear-gradient-29" x1="1825.51" y1="778.71" x2="1459.75" y2="353.7" gradientTransform="matrix(-0.97, 0.23, 0.23, 0.97, 2130.01, -294.65)" xlink:href="#linear-gradient-4"/><linearGradient id="linear-gradient-30" x1="1702.05" y1="1263.61" x2="1259.31" y2="749.15" gradientTransform="matrix(-0.89, -0.45, -0.45, 0.89, 2560.48, 633.72)" xlink:href="#linear-gradient-4"/><linearGradient id="linear-gradient-31" x1="1584.05" y1="1220.13" x2="1141.31" y2="705.68" gradientTransform="matrix(-0.89, -0.45, -0.45, 0.89, 2560.48, 633.72)" xlink:href="#linear-gradient-4"/><linearGradient id="linear-gradient-32" x1="439.69" y1="1501.38" x2="165.95" y2="1159.56" gradientTransform="matrix(0.79, 0.61, -0.61, 0.79, 882.02, -769.36)" xlink:href="#linear-gradient-4"/><linearGradient id="linear-gradient-33" x1="978.64" y1="1492.11" x2="611.54" y2="1197.84" gradientTransform="matrix(0.34, 0.94, -0.94, 0.34, 1350.99, -779.32)" xlink:href="#linear-gradient-4"/><linearGradient id="linear-gradient-34" x1="873.41" y1="893.63" x2="848.31" y2="745.02" gradientTransform="translate(554.74 -697.04) rotate(53.54)" gradientUnits="userSpaceOnUse"><stop offset="0" stop-color="#276b00"/><stop offset="1" stop-color="#1cff3a"/></linearGradient><linearGradient id="linear-gradient-35" x1="840.12" y1="869.06" x2="726.42" y2="828.17" xlink:href="#linear-gradient-34"/><linearGradient id="linear-gradient-36" x1="945.4" y1="945.96" x2="784.74" y2="941.45" xlink:href="#linear-gradient-34"/><linearGradient id="linear-gradient-37" x1="1013.08" y1="1014.36" x2="803.44" y2="1055.08" xlink:href="#linear-gradient-34"/><linearGradient id="linear-gradient-38" x1="1123.02" y1="1070.24" x2="913.58" y2="1131.67" xlink:href="#linear-gradient-34"/><linearGradient id="linear-gradient-39" x1="1241.62" y1="1108.57" x2="1049.26" y2="1213.08" xlink:href="#linear-gradient-34"/><linearGradient id="linear-gradient-40" x1="956.07" y1="957.17" x2="932.97" y2="786.45" xlink:href="#linear-gradient-34"/><linearGradient id="linear-gradient-41" x1="1115.43" y1="1057.05" x2="1029.4" y2="857.97" xlink:href="#linear-gradient-34"/><linearGradient id="linear-gradient-42" x1="1223.95" y1="1102.26" x2="1146.76" y2="809.53" xlink:href="#linear-gradient-34"/><linearGradient id="linear-gradient-43" x1="828.43" y1="856.94" x2="752.51" y2="726.08" xlink:href="#linear-gradient-34"/><linearGradient id="linear-gradient-44" x1="1246.71" y1="1117.93" x2="967.01" y2="1269.89" xlink:href="#linear-gradient-34"/><linearGradient id="linear-gradient-45" x1="1124.88" y1="1049.55" x2="844.75" y2="1201.75" xlink:href="#linear-gradient-34"/><linearGradient id="linear-gradient-46" x1="1016.38" y1="979.21" x2="736.22" y2="1131.42" xlink:href="#linear-gradient-34"/><linearGradient id="linear-gradient-47" x1="929.52" y1="955.17" x2="698.27" y2="950.16" xlink:href="#linear-gradient-34"/><linearGradient id="linear-gradient-48" x1="838.3" y1="874.85" x2="682.72" y2="818.01" xlink:href="#linear-gradient-34"/><linearGradient id="linear-gradient-49" x1="813.19" y1="845.59" x2="705.3" y2="657.78" xlink:href="#linear-gradient-34"/><linearGradient id="linear-gradient-50" x1="870.38" y1="883.61" x2="851.18" y2="699.14" xlink:href="#linear-gradient-34"/><linearGradient id="linear-gradient-51" x1="940.62" y1="968.81" x2="947.66" y2="726.45" xlink:href="#linear-gradient-34"/><linearGradient id="linear-gradient-52" x1="1106.34" y1="1063.91" x2="1030.22" y2="767.44" xlink:href="#linear-gradient-34"/><linearGradient id="linear-gradient-53" x1="1233.85" y1="1107.58" x2="1168.66" y2="789.65" xlink:href="#linear-gradient-34"/><linearGradient id="linear-gradient-54" x1="1683.17" y1="410.8" x2="1658.27" y2="263.4" gradientTransform="matrix(-1, 0.09, 0.09, 1, 2398.61, 129.88)" gradientUnits="userSpaceOnUse"><stop offset="0" stop-color="#34de00"/><stop offset="1" stop-color="#fff"/></linearGradient><linearGradient id="linear-gradient-55" x1="1650.19" y1="386.31" x2="1535.02" y2="344.89" xlink:href="#linear-gradient-54"/><linearGradient id="linear-gradient-56" x1="1757.21" y1="462.26" x2="1594.64" y2="457.7" xlink:href="#linear-gradient-54"/><linearGradient id="linear-gradient-57" x1="1825.84" y1="530.03" x2="1614.61" y2="571.06" xlink:href="#linear-gradient-54"/><linearGradient id="linear-gradient-58" x1="1937.29" y1="585.97" x2="1726.66" y2="647.74" xlink:href="#linear-gradient-54"/><linearGradient id="linear-gradient-59" x1="2057.15" y1="624.71" x2="1864.57" y2="729.34" xlink:href="#linear-gradient-54"/><linearGradient id="linear-gradient-60" x1="1767.17" y1="474.16" x2="1744.26" y2="304.85" xlink:href="#linear-gradient-54"/><linearGradient id="linear-gradient-61" x1="1928.45" y1="574.44" x2="1842.67" y2="375.95" xlink:href="#linear-gradient-54"/><linearGradient id="linear-gradient-62" x1="2038.47" y1="619.77" x2="1961.75" y2="328.83" xlink:href="#linear-gradient-54"/><linearGradient id="linear-gradient-63" x1="1637.16" y1="374.77" x2="1561.27" y2="243.96" xlink:href="#linear-gradient-54"/><linearGradient id="linear-gradient-64" x1="2061.77" y1="633.23" x2="1781.77" y2="785.36" xlink:href="#linear-gradient-54"/><linearGradient id="linear-gradient-65" x1="1938.55" y1="564.6" x2="1657.54" y2="717.27" xlink:href="#linear-gradient-54"/><linearGradient id="linear-gradient-66" x1="1828.51" y1="494.26" x2="1547.19" y2="647.1" xlink:href="#linear-gradient-54"/><linearGradient id="linear-gradient-67" x1="1741.14" y1="471.03" x2="1507.16" y2="465.97" xlink:href="#linear-gradient-54"/><linearGradient id="linear-gradient-68" x1="1648.42" y1="391.96" x2="1490.83" y2="334.38" xlink:href="#linear-gradient-54"/><linearGradient id="linear-gradient-69" x1="1621.58" y1="363.61" x2="1513.74" y2="175.89" xlink:href="#linear-gradient-54"/><linearGradient id="linear-gradient-70" x1="1679.84" y1="400.84" x2="1660.81" y2="217.99" xlink:href="#linear-gradient-54"/><linearGradient id="linear-gradient-71" x1="1751.64" y1="485.55" x2="1758.61" y2="245.61" xlink:href="#linear-gradient-54"/><linearGradient id="linear-gradient-72" x1="1918.71" y1="581.22" x2="1842.97" y2="286.2" xlink:href="#linear-gradient-54"/><linearGradient id="linear-gradient-73" x1="2047.74" y1="625.09" x2="1982.99" y2="309.29" xlink:href="#linear-gradient-54"/><linearGradient id="linear-gradient-74" x1="1319.46" y1="763.73" x2="1301.43" y2="656.99" gradientTransform="matrix(-0.98, -0.2, -0.2, 0.98, 2553.61, 518.42)" xlink:href="#linear-gradient-6"/><linearGradient id="linear-gradient-75" x1="1295.9" y1="745.65" x2="1212.47" y2="715.64" gradientTransform="matrix(-0.98, -0.2, -0.2, 0.98, 2553.61, 518.42)" xlink:href="#linear-gradient-6"/><linearGradient id="linear-gradient-76" x1="1373.42" y1="800.76" x2="1255.96" y2="797.46" gradientTransform="matrix(-0.98, -0.2, -0.2, 0.98, 2553.61, 518.42)" xlink:href="#linear-gradient-6"/><linearGradient id="linear-gradient-77" x1="1423.14" y1="850.08" x2="1270.9" y2="879.66" gradientTransform="matrix(-0.98, -0.2, -0.2, 0.98, 2553.61, 518.42)" xlink:href="#linear-gradient-6"/><linearGradient id="linear-gradient-78" x1="1503.83" y1="890.96" x2="1352.12" y2="935.45" gradientTransform="matrix(-0.98, -0.2, -0.2, 0.98, 2553.61, 518.42)" xlink:href="#linear-gradient-6"/><linearGradient id="linear-gradient-79" x1="1590.52" y1="919.53" x2="1451.98" y2="994.8" gradientTransform="matrix(-0.98, -0.2, -0.2, 0.98, 2553.61, 518.42)" xlink:href="#linear-gradient-6"/><linearGradient id="linear-gradient-80" x1="1380.33" y1="809.82" x2="1363.74" y2="687.22" gradientTransform="matrix(-0.98, -0.2, -0.2, 0.98, 2553.61, 518.42)" xlink:href="#linear-gradient-6"/><linearGradient id="linear-gradient-81" x1="1497.23" y1="882.95" x2="1435.01" y2="738.96" gradientTransform="matrix(-0.98, -0.2, -0.2, 0.98, 2553.61, 518.42)" xlink:href="#linear-gradient-6"/><linearGradient id="linear-gradient-82" x1="1576.72" y1="916.11" x2="1521.12" y2="705.26" gradientTransform="matrix(-0.98, -0.2, -0.2, 0.98, 2553.61, 518.42)" xlink:href="#linear-gradient-6"/><linearGradient id="linear-gradient-83" x1="1286.26" y1="737.56" x2="1231.18" y2="642.62" gradientTransform="matrix(-0.98, -0.2, -0.2, 0.98, 2553.61, 518.42)" xlink:href="#linear-gradient-6"/><linearGradient id="linear-gradient-84" x1="1593.83" y1="925.61" x2="1392.39" y2="1035.05" gradientTransform="matrix(-0.98, -0.2, -0.2, 0.98, 2553.61, 518.42)" xlink:href="#linear-gradient-6"/><linearGradient id="linear-gradient-85" x1="1504.65" y1="875.53" x2="1302.41" y2="985.41" gradientTransform="matrix(-0.98, -0.2, -0.2, 0.98, 2553.61, 518.42)" xlink:href="#linear-gradient-6"/><linearGradient id="linear-gradient-86" x1="1424.94" y1="824.29" x2="1222.45" y2="934.31" gradientTransform="matrix(-0.98, -0.2, -0.2, 0.98, 2553.61, 518.42)" xlink:href="#linear-gradient-6"/><linearGradient id="linear-gradient-87" x1="1361.82" y1="806.93" x2="1192.76" y2="803.27" gradientTransform="matrix(-0.98, -0.2, -0.2, 0.98, 2553.61, 518.42)" xlink:href="#linear-gradient-6"/><linearGradient id="linear-gradient-88" x1="1294.59" y1="749.84" x2="1180.41" y2="708.12" gradientTransform="matrix(-0.98, -0.2, -0.2, 0.98, 2553.61, 518.42)" xlink:href="#linear-gradient-6"/><linearGradient id="linear-gradient-89" x1="1274.95" y1="729.46" x2="1196.69" y2="593.22" gradientTransform="matrix(-0.98, -0.2, -0.2, 0.98, 2553.61, 518.42)" xlink:href="#linear-gradient-6"/><linearGradient id="linear-gradient-90" x1="1316.89" y1="756.51" x2="1303.12" y2="624.15" gradientTransform="matrix(-0.98, -0.2, -0.2, 0.98, 2553.61, 518.42)" xlink:href="#linear-gradient-6"/><linearGradient id="linear-gradient-91" x1="1368.96" y1="818" x2="1374" y2="644.39" gradientTransform="matrix(-0.98, -0.2, -0.2, 0.98, 2553.61, 518.42)" xlink:href="#linear-gradient-6"/><linearGradient id="linear-gradient-92" x1="1489.94" y1="887.87" x2="1435.02" y2="673.97" gradientTransform="matrix(-0.98, -0.2, -0.2, 0.98, 2553.61, 518.42)" xlink:href="#linear-gradient-6"/><linearGradient id="linear-gradient-93" x1="1583.15" y1="920.01" x2="1536.23" y2="691.19" gradientTransform="matrix(-0.98, -0.2, -0.2, 0.98, 2553.61, 518.42)" xlink:href="#linear-gradient-6"/><linearGradient id="linear-gradient-94" x1="1527.34" y1="1302.82" x2="1259.67" y2="917.59" gradientTransform="matrix(-1, 0.05, 0.05, 1, 1730.67, -144.46)" xlink:href="#linear-gradient"/><linearGradient id="linear-gradient-95" x1="734.96" y1="1623.21" x2="716.21" y2="792.18" gradientTransform="matrix(0.81, 0.58, -0.58, 0.81, 682.94, -450.94)" xlink:href="#linear-gradient"/><linearGradient id="linear-gradient-96" x1="1636.64" y1="1446.98" x2="1266.77" y2="1017.2" gradientTransform="matrix(-0.89, -0.45, -0.45, 0.89, 2560.48, 633.72)" xlink:href="#linear-gradient-4"/><linearGradient id="linear-gradient-97" x1="1538.06" y1="1410.66" x2="1168.2" y2="980.88" gradientTransform="matrix(-0.89, -0.45, -0.45, 0.89, 2560.48, 633.72)" xlink:href="#linear-gradient-4"/></defs><title>Asset 1</title><g id="Layer_2" data-name="Layer 2"><g id="Layer_1-2" data-name="Layer 1"><g class="cls-2"><path class="cls-3" d="M623.21,58S913.91,152.28,929.6,387.5,961.49,700.81,1088.26,833s247.23,267.07,172.85,466.07S0,1306.7,0,1306.7L34.83,96.18Z"/><path class="cls-4" d="M689.48,1220.17s124.82,99.31,210.86,100.2,101.31-39.38,93.7-73,30.91-55.63,77.51-42.19,134.35,25.11,137.66-19c3.29-43.85-74.64-56.24-63.89-87.76s120.73-4.73,158-68S1284,916.91,1230.9,936,1117.16,994.45,1078,967.9s-14-83.84-50.11-101.53-76.06,38.06-105.52,99.36-73.79,20.49-67.67-20.24-41-51.26-87.45,5.37S678,1134.24,689.48,1220.17Z"/><path class="cls-5" d="M900.34,1320.38c86,.89,101.32-39.38,93.7-73s30.91-55.63,77.51-42.19,134.35,25.11,137.66-19c3.29-43.85-74.64-56.24-63.89-87.76s120.73-4.73,158-68c12.06-20.48,14.24-39.58,9.93-55.44-113.49,35.2-418.09,132.12-625.55,221.09a220.73,220.73,0,0,0,1.8,24S814.3,1319.48,900.34,1320.38Z"/><path class="cls-6" d="M581.68,631.53c22.81-4,45.41-12,67.53-22.83-8.2-17.91-36-83.61-28.77-138.2,8.39-63.84,43.74-95.62,43.74-95.62s68.71,140.19-2.83,227.58c26.82-14.52,52.86-33.13,77.64-54.09-6.44-11.85-21.68-46.13-18.3-100.95,4.26-69,58-113.81,58-113.81s33.22,115-12.41,190.25c31.19-29.49,59.89-61.86,85-93.17-9.67-7.57-32-29.76-34.89-75.38-3.74-58.44,35.27-89.13,35.27-89.13s34.5,84.51,15.14,144.77c16-20.85,30.31-40.8,42.51-58.63-5.72-8.52-17-28.76-20.24-59.57-5.07-48.6,16.62-81.65,16.62-81.65s24.87,73.36,12.9,127.49c10.89-16.35,19.67-30.29,26-40.67-1.58-10.27-3-31.16,3.34-63.07,7.26-36.67,30.47-58.34,30.47-58.34s31.16,80.66-21.84,121.93c-2.66,4.46-5.87,9.76-9.61,15.78,8.46-7.76,19.54-17.41,31.74-26.66,26.54-20.1,52.51-19.88,52.51-19.88s-27.06,79.38-95,63.56c-11.92,18.54-27.13,41.14-45.11,65.66,11.78-9.2,27.18-18.82,44.49-23.64,39-10.87,89-5.07,89-5.07s-17,54.53-79.41,58.55c-43.54,2.8-64.23-1.93-72.78-5-13,16.84-27.15,34.19-42.25,51.44a126.82,126.82,0,0,1,77.43-15.42c61.34,7.1,101.69,27.54,101.69,27.54S947.16,528.43,895.81,521a222.15,222.15,0,0,1-82.09-29.53c-16.45,17.82-33.89,35.26-52.13,51.64,15.7-5.71,38.49-9.74,69.74-5.6,69.89,9.26,108.59,34,108.59,34S870.57,596.62,817,595c-42.39-1.28-69.81-22.5-79.45-31.33a486.87,486.87,0,0,1-52.74,37.48c12.57-1.65,28.59-1.17,48,4.48C786,621.16,848.3,655.06,848.3,655.06s-68.44,30.76-135.22,17.65c-52.21-10.25-60.45-40.7-61.57-53.5a276,276,0,0,1-57,20.19q-5.49,1.25-11,2.23a5.14,5.14,0,1,1-1.85-10.1Z"/><path class="cls-7" d="M539.8,163.64S548,283.49,448,389.35c-103.27,109.31-223.55,99.5-223.55,99.5s-42-146.84,87.67-250.4C437.62,138.19,539.8,163.64,539.8,163.64Z"/><path class="cls-8" d="M312.11,238.45C182.47,342,224.44,488.85,224.44,488.85,309.57,324.92,539.8,163.64,539.8,163.64S437.62,138.19,312.11,238.45Z"/><path class="cls-9" d="M358.28,153.22s-16.74-18.38-21.44-53.38c-5.47-40.73,11.94-69,11.94-69S377.26,107.28,358.28,153.22Z"/><path class="cls-10" d="M372.78,130A395.3,395.3,0,0,1,412,93.33c21.81-17.54,43.64-18,43.64-18S433.82,146.39,372.78,130Z"/><path class="cls-11" d="M321.65,206.74s23.78-30.26,56.29-40.33,74.7-6.4,74.7-6.4-12.94,46.24-65.29,51.12S321.65,206.74,321.65,206.74Z"/><path class="cls-12" d="M274.3,266.24s30.47-32.68,82.21-28.18,86.16,20.71,86.16,20.71-51.21,37.78-94.56,32.79S274.3,266.24,274.3,266.24Z"/><path class="cls-13" d="M212.74,328.06s22.61-27.18,81.58-21.07,92.11,26,92.11,26-57.67,22.71-102.75,22.63S212.74,328.06,212.74,328.06Z"/><path class="cls-14" d="M145,375.1s23-20.28,68.17-8.51,98.33,38.77,98.33,38.77-56.76,27.49-113.22,18.08S145,375.1,145,375.1Z"/><path class="cls-15" d="M312.35,219.25s-30.45-16-35-65.08,27.43-75.76,27.43-75.76S344.86,169,312.35,219.25Z"/><path class="cls-16" d="M219.42,322.21S197.21,292,199.07,233.9s46-97.05,46-97.05S285.19,261.9,219.42,322.21Z"/><path class="cls-17" d="M145,375.1s-35.08-65.54-29.62-119.4,34.39-81.42,34.39-81.42S216.47,300.67,145,375.1Z"/><path class="cls-18" d="M385.15,109.12s-7-19.31-.27-59.36C390.07,18.77,409,0,409,0S440.75,75.33,385.15,109.12Z"/><path class="cls-19" d="M198.28,423.44C141.83,414,145,375.1,145,375.1S197.81,411,311.5,405.36C311.5,405.36,254.73,432.85,198.28,423.44Z"/><path class="cls-20" d="M283.69,355.63c-45.08-.07-70.95-27.57-70.95-27.57L386.43,333S328.77,355.7,283.69,355.63Z"/><path class="cls-21" d="M348.1,291.56c-43.35-5-73.8-25.32-73.8-25.32l168.36-7.47S391.45,296.55,348.1,291.56Z"/><path class="cls-22" d="M387.34,211.12c-52.35,4.87-65.69-4.39-65.69-4.39l131-46.73S439.69,206.25,387.34,211.12Z"/><path class="cls-23" d="M372.78,130s54-18,82.91-54.64C455.69,75.37,433.82,146.39,372.78,130Z"/><path class="cls-24" d="M385.15,109.12S411.51,40.77,409,0C409,0,440.75,75.33,385.15,109.12Z"/><path class="cls-25" d="M336.84,99.85c-5.47-40.73,11.94-69,11.94-69-6.25,46.37,9.5,122.41,9.5,122.41S341.54,134.84,336.84,99.85Z"/><path class="cls-26" d="M277.3,154.18c-4.59-49,27.43-75.76,27.43-75.76-17.09,79.44,7.62,140.84,7.62,140.84S281.89,203.21,277.3,154.18Z"/><path class="cls-27" d="M199.07,233.9c1.86-58.14,46-97.05,46-97.05-18.33,67.71-25.61,185.36-25.61,185.36S197.21,292,199.07,233.9Z"/><path class="cls-28" d="M115.39,255.7c5.47-53.86,34.39-81.42,34.39-81.42C140.54,230.9,145,375.1,145,375.1S109.92,309.56,115.39,255.7Z"/><path class="cls-29" d="M585.56,676S723,635,766.93,572.86,788.13,479.36,759,468s-26.38-50.42,7.14-77.58S852.5,305.29,821,280.74c-31.38-24.42-79.85,26.06-98.19,2.42s57.06-90.22,28.13-149.07-95.27-43-107.57,5.21S630.28,251.43,590.61,266.6,520.44,234.66,489,252.08s-9.52,74.46,21.87,126.67-21.62,64-49.23,39.07-59.2,4.09-39.87,66.33S515.05,641.17,585.56,676Z"/><path class="cls-30" d="M766.93,572.85C810.81,510.7,788.13,479.36,759,468s-26.38-50.42,7.14-77.58S852.5,305.28,821,280.74c-31.38-24.42-79.85,26.06-98.19,2.42s57.06-90.22,28.13-149.07C741.53,115,728.23,103.86,714.12,99,683.64,199.28,603.7,469.59,566.55,665.21a205.36,205.36,0,0,0,19,10.76S723,635,766.93,572.85Z"/><path class="cls-31" d="M677.66,447s-141.47,42.89-219.9,200c-81,162.21-17.5,291.63-17.5,291.63s187.19-17.07,250.1-206.09C751.28,549.56,677.66,447,677.66,447Z"/><path class="cls-32" d="M690.37,732.56c-62.91,189-250.1,206.09-250.1,206.09C545.93,830.15,677.66,447,677.66,447S751.28,549.56,690.37,732.56Z"/><path class="cls-33" d="M1072,719.91s-163.22-67.85-358.23,16.66C512.42,823.83,469.09,990.46,469.09,990.46s184.85,126.13,390.69.63C1059.06,869.58,1072,719.91,1072,719.91Z"/><path class="cls-34" d="M859.78,991.09c-205.84,125.5-390.69-.63-390.69-.63C651,971.08,1072,719.91,1072,719.91S1059.06,869.58,859.78,991.09Z"/><path class="cls-35" d="M324.33,318.44s106,91.08,112.31,257.41C443.12,747.59,337,835.9,337,835.9s-155.93-86-136.15-274.2C220,379.52,324.33,318.44,324.33,318.44Z"/><path class="cls-36" d="M200.84,561.7C181.07,749.87,337,835.9,337,835.9c-66.54-201.72-12.66-517.46-12.66-517.46S220,379.52,200.84,561.7Z"/><path class="cls-37" d="M358,526.48s34.27-5.55,70.24-39.28c41.85-39.25,48.06-84.62,48.06-84.62S378.1,460.75,358,526.48Z"/><path class="cls-38" d="M362.87,489.08a532.8,532.8,0,0,0-10-73c-8-37.5-31.2-56.59-31.2-56.59S282.58,454.7,362.87,489.08Z"/><path class="cls-39" d="M350.28,615.41s1.07-52.91-25.1-91.48-74.9-70.59-74.9-70.59-26.86,60.9,25.29,110.79S350.28,615.41,350.28,615.41Z"/><path class="cls-40" d="M348.81,720s-4-61.22-63.77-100.48-111.19-51.13-111.19-51.13,21.88,84.4,73,116S348.81,720,348.81,720Z"/><path class="cls-41" d="M360.62,839.11s-.39-48.58-69.37-92.28S169,696.33,169,696.33s42.14,73.65,90.82,112S360.62,839.11,360.62,839.11Z"/><path class="cls-42" d="M392.14,947.57s-6.91-41.48-66-67.29-140.26-42-140.26-42,36.94,78,106.12,116S392.14,947.57,392.14,947.57Z"/><path class="cls-43" d="M349.26,636.84s47,8.66,95.24-40.29,37.3-105.08,37.3-105.08S358.6,554.88,349.26,636.84Z"/><path class="cls-44" d="M358.58,827.09s50.59-13.59,99.9-77.88,36.11-143.85,36.11-143.85S340.9,706,358.58,827.09Z"/><path class="cls-45" d="M392.14,947.57s95.69-40.76,137.34-103.5S564.27,727,564.27,727,380.78,806.39,392.14,947.57Z"/><path class="cls-46" d="M368,456s24.57-14.88,52.69-63.78C442.43,354.38,438.53,318,438.53,318S337.85,372.16,368,456Z"/><path class="cls-47" d="M292,954.28c69.18,38,100.13-6.7,100.13-6.7s-88.66-6.27-206.25-109.32C185.89,838.25,222.83,916.3,292,954.28Z"/><path class="cls-48" d="M259.78,808.34c48.68,38.36,100.84,30.77,100.84,30.77L169,696.33S211.1,770,259.78,808.34Z"/><path class="cls-49" d="M246.87,684.33C298,715.91,348.81,720,348.81,720l-175-151.61S195.73,652.75,246.87,684.33Z"/><path class="cls-50" d="M275.57,564.13c52.15,49.89,74.71,51.28,74.71,51.28l-100-162.07S223.42,514.25,275.57,564.13Z"/><path class="cls-51" d="M362.87,489.08s-42.29-65.48-41.17-129.62C321.7,359.46,282.58,454.7,362.87,489.08Z"/><path class="cls-52" d="M368,456s31.91-96.18,70.56-138C438.53,318,337.85,372.16,368,456Z"/><path class="cls-53" d="M428.26,487.2c41.85-39.25,48.06-84.62,48.06-84.62C442.13,457.91,358,526.48,358,526.48S392.29,520.93,428.26,487.2Z"/><path class="cls-54" d="M444.5,596.55c48.24-49,37.3-105.08,37.3-105.08C430.1,591.7,349.26,636.84,349.26,636.84S396.26,645.5,444.5,596.55Z"/><path class="cls-55" d="M458.48,749.21c49.31-64.28,36.11-143.85,36.11-143.85-40,88.65-136,221.72-136,221.72S409.17,813.5,458.48,749.21Z"/><path class="cls-56" d="M529.48,844.07C571.13,781.33,564.27,727,564.27,727c-40,68.93-172.12,220.62-172.12,220.62S487.83,906.82,529.48,844.07Z"/><path class="cls-57" d="M764.18,682.44s-18.56-28.85-16.82-77.68c2-56.82,32.39-91.53,32.39-91.53S800.8,624,764.18,682.44Z"/><path class="cls-58" d="M789.39,654a551.57,551.57,0,0,1,62.15-41.22c33.85-19,63.76-14.7,63.76-14.7S868.89,690.13,789.39,654Z"/><path class="cls-59" d="M701.71,747.23s39.52-35.95,86.23-42.37S891.38,713,891.38,713s-28.45,60.2-101,55.07S701.71,747.23,701.71,747.23Z"/><path class="cls-60" d="M623.21,817.79s49.21-37.74,118.77-20,112.77,47.67,112.77,47.67S776,885.54,718,869,623.21,817.79,623.21,817.79Z"/><path class="cls-61" d="M524.77,888.31S562,856.31,641,877.92,760.7,934.16,760.7,934.16s-84,18-145.52,7.75S524.77,888.31,524.77,888.31Z"/><path class="cls-62" d="M421.35,937.25s36.13-22.5,95,3.74S641.55,1016,641.55,1016s-83.89,24.74-158.75-.81S421.35,937.25,421.35,937.25Z"/><path class="cls-63" d="M686.09,762.22s-37.83-28.76-32.67-96.72,55.1-97.23,55.1-97.23S742.2,700.89,686.09,762.22Z"/><path class="cls-64" d="M535.26,881.82S512,835.64,528.07,756.7s85.36-122.12,85.36-122.12S639.09,814.31,535.26,881.82Z"/><path class="cls-65" d="M421.35,937.25s-32.61-97.35-12.59-169.64,65.92-103.38,65.92-103.38S536.25,851.76,421.35,937.25Z"/><path class="cls-66" d="M811.14,628.3s-5-27.93,13.47-81.08c14.31-41.14,44.58-62.48,44.58-62.48S894.91,594.69,811.14,628.3Z"/><path class="cls-67" d="M482.8,1015.23c-74.86-25.56-61.45-78-61.45-78S485,998.19,641.55,1016C641.55,1016,557.66,1040.79,482.8,1015.23Z"/><path class="cls-68" d="M615.18,941.91c-61.51-10.25-90.41-53.6-90.41-53.6L760.7,934.16S676.69,952.16,615.18,941.91Z"/><path class="cls-69" d="M718,869c-58-16.57-94.83-51.18-94.83-51.18l231.54,27.71S776,885.54,718,869Z"/><path class="cls-70" d="M790.35,768c-72.59-5.14-88.64-20.78-88.64-20.78L891.38,713S862.93,773.16,790.35,768Z"/><path class="cls-71" d="M789.39,654s77.89-12.47,125.9-55.91C915.29,598.11,868.89,690.13,789.39,654Z"/><path class="cls-72" d="M811.14,628.3s51.92-87.36,58.05-143.56C869.19,484.74,894.91,594.69,811.14,628.3Z"/><path class="cls-73" d="M747.36,604.76c2-56.82,32.39-91.53,32.39-91.53-19.35,61.88-15.57,169.21-15.57,169.21S745.62,653.59,747.36,604.76Z"/><path class="cls-74" d="M653.43,665.51c5.16-68,55.1-97.23,55.1-97.23-41.85,104.58-22.44,193.95-22.44,193.95S648.27,733.47,653.43,665.51Z"/><path class="cls-75" d="M528.07,756.7c16.1-78.93,85.36-122.12,85.36-122.12-40.81,88.3-78.17,247.24-78.17,247.24S512,835.64,528.07,756.7Z"/><path class="cls-76" d="M408.77,767.62c20-72.28,65.92-103.38,65.92-103.38-25.81,75.21-53.33,273-53.33,273S388.75,839.9,408.77,767.62Z"/><path class="cls-77" d="M1112.81,997.4s-6.73-23.76,4.81-57.19c13.43-38.9,41.79-56.71,41.79-56.71S1150.52,964.46,1112.81,997.4Z"/><path class="cls-78" d="M1136.27,982.89A403.22,403.22,0,0,1,1188,967.09c27.45-6.24,47.23,2.87,47.23,2.87S1183.63,1024.14,1136.27,982.89Z"/><path class="cls-79" d="M1055.86,1029.46s35-16.79,68.64-11.68,69.86,26.75,69.86,26.75-32.43,35.84-81.57,17.44S1055.86,1029.46,1055.86,1029.46Z"/><path class="cls-80" d="M986.61,1062.22s42-16,86.41,10.48,67.93,56,67.93,56-62.94,11.6-99.56-11.72S986.61,1062.22,986.61,1062.22Z"/><path class="cls-81" d="M903.56,1090.88s32.51-14.54,82.64,16.59,70.89,63.38,70.89,63.38-61.94-4.72-102.33-24.4S903.56,1090.88,903.56,1090.88Z"/><path class="cls-82" d="M821.64,1103.6s29.76-8.18,65,22,70.72,77.54,70.72,77.54-63.28,0-109.67-33S821.64,1103.6,821.64,1103.6Z"/><path class="cls-83" d="M1041.89,1036.64s-20.08-27.64-2.12-73.6,58.72-56,58.72-56S1093.69,1005.67,1041.89,1036.64Z"/><path class="cls-84" d="M912.2,1088.54s-6.33-36.72,21.52-88,84.92-67,84.92-67S998.33,1063.06,912.2,1088.54Z"/><path class="cls-85" d="M821.64,1103.6s-1.95-74,27.21-120,67.5-58.05,67.5-58.05S919.24,1067.94,821.64,1103.6Z"/><path class="cls-86" d="M1156.77,969.54s2.44-20.35,26.49-53.34c18.61-25.54,44.08-34.11,44.08-34.11S1221.84,963.42,1156.77,969.54Z"/><path class="cls-87" d="M847.65,1170.12c-46.38-33-26-66.52-26-66.52s31.17,55.19,135.67,99.55C957.32,1203.15,894,1203.12,847.65,1170.12Z"/><path class="cls-88" d="M954.77,1146.46c-40.39-19.67-51.21-55.58-51.21-55.58l153.54,80S995.16,1166.14,954.77,1146.46Z"/><path class="cls-89" d="M1041.38,1117c-36.62-23.32-54.78-54.81-54.78-54.81l154.34,66.53S1078,1140.35,1041.38,1117Z"/><path class="cls-90" d="M1112.79,1062c-49.14-18.4-56.93-32.51-56.93-32.51l138.5,15.07S1161.93,1080.37,1112.79,1062Z"/><path class="cls-91" d="M1136.27,982.89s56.54,7.3,99-12.94C1235.22,970,1183.63,1024.14,1136.27,982.89Z"/><path class="cls-92" d="M1156.77,969.54s54.42-49.83,70.57-87.46C1227.33,882.08,1221.84,963.42,1156.77,969.54Z"/><path class="cls-93" d="M1117.62,940.21c13.43-38.9,41.79-56.71,41.79-56.71-26.49,38.86-46.6,113.9-46.6,113.9S1106.07,973.64,1117.62,940.21Z"/><path class="cls-94" d="M1039.76,963c18-46,58.72-56,58.72-56-51.1,63.8-56.59,129.61-56.59,129.61S1021.8,1009,1039.76,963Z"/><path class="cls-95" d="M933.71,1000.5c27.85-51.32,84.92-67,84.92-67C971.7,986.21,912.2,1088.54,912.2,1088.54S905.86,1051.82,933.71,1000.5Z"/><path class="cls-96" d="M848.85,983.65c29.16-45.92,67.5-58.05,67.5-58.05-33.78,46.76-94.71,178-94.71,178S819.7,1029.57,848.85,983.65Z"/><path class="cls-97" d="M257.22,1279.91S400.17,1294,465,1253.17s56.12-78.32,33.63-99.8-4.66-56.51,36.91-68.94,113-46,93.5-80.58c-19.43-34.39-83.91-6.08-91.61-34.83s87.94-61.77,84.23-127-71.17-75.64-101.35-35.79-55.87,98.6-98.43,97.63-52.3-56-88.17-51.77-37.89,65.15-29.31,125.21-45,50.91-60.72,17.49S187.4,976.21,180.92,1041,205.72,1221.17,257.22,1279.91Z"/><path class="cls-98" d="M465,1253.17c64.81-40.83,56.12-78.32,33.63-99.8s-4.65-56.51,36.91-68.94,113-46,93.5-80.58c-19.43-34.39-83.91-6.08-91.61-34.83s87.94-61.77,84.23-127c-1.2-21.13-9.11-36.48-20.26-46.26-67.32,81.06-246.76,300.46-357.5,467.06a201.41,201.41,0,0,0,13.34,17.1S400.17,1294,465,1253.17Z"/><path class="cls-99" d="M949.23,958.78S812.87,902.1,650,972.69c-168.22,72.9-204.42,212.1-204.42,212.1s154.42,105.37,326.38.52C938.41,1083.81,949.23,958.78,949.23,958.78Z"/><path class="cls-100" d="M771.93,1185.32c-172,104.85-326.38-.52-326.38-.52,151.93-16.19,503.68-226,503.68-226S938.41,1083.81,771.93,1185.32Z"/><ellipse class="cls-101" cx="373.26" cy="347.83" rx="6.14" ry="6.03"/><ellipse class="cls-101" cx="247.4" cy="783.54" rx="6.14" ry="6.03"/><ellipse class="cls-101" cx="431.2" cy="615.01" rx="6.14" ry="6.03"/><ellipse class="cls-101" cx="604.36" cy="342.9" rx="6.14" ry="6.03"/><ellipse class="cls-101" cx="1207.97" cy="1107" rx="6.14" ry="6.03"/><ellipse class="cls-101" cx="779.47" cy="217.11" rx="6.14" ry="6.03"/><ellipse class="cls-101" cx="736.77" cy="1024.85" rx="6.14" ry="6.03"/><ellipse class="cls-101" cx="431.16" cy="1128.43" rx="6.14" ry="6.03"/><ellipse class="cls-101" cx="291.02" cy="233.42" rx="6.14" ry="6.03"/><ellipse class="cls-101" cx="857.84" cy="795.61" rx="6.14" ry="6.03"/><ellipse class="cls-101" cx="1047.55" cy="680.45" rx="6.14" ry="6.03"/><ellipse class="cls-101" cx="426.85" cy="830.65" rx="6.14" ry="6.03"/><ellipse class="cls-101" cx="1027.62" cy="896.49" rx="6.14" ry="6.03"/><ellipse class="cls-101" cx="898.71" cy="568.81" rx="6.14" ry="6.03"/></g></g></g></svg>